<svg width="137" height="29" viewBox="0 0 137 29" fill="none" xmlns="http://www.w3.org/2000/svg">
<g filter="url(#filter0_d)">
<path d="M10.3086 14.3945L10.8359 17.043L11.4805 14.5117L15.1836 1.9375H16.4844L20.1406 14.5117L20.7734 17.0664L21.3359 14.3945L24.418 1.9375H25.8945L21.5234 19H20.1406L16.2734 5.65234L15.8398 3.96484L15.418 5.65234L11.457 19H10.0742L5.71484 1.9375H7.19141L10.3086 14.3945ZM29.9141 19H28.5078V6.32031H29.9141V19ZM28.2617 2.65234C28.2617 2.38672 28.3477 2.16406 28.5195 1.98438C28.6914 1.79688 28.9258 1.70312 29.2227 1.70312C29.5195 1.70312 29.7539 1.79688 29.9258 1.98438C30.1055 2.16406 30.1953 2.38672 30.1953 2.65234C30.1953 2.91797 30.1055 3.14063 29.9258 3.32031C29.7539 3.5 29.5195 3.58984 29.2227 3.58984C28.9258 3.58984 28.6914 3.5 28.5195 3.32031C28.3477 3.14063 28.2617 2.91797 28.2617 2.65234ZM35.3047 19H33.8984V1H35.3047V19ZM38.5625 12.543C38.5625 10.5742 39 9.00781 39.875 7.84375C40.7578 6.67188 41.9531 6.08594 43.4609 6.08594C45.1719 6.08594 46.4766 6.76172 47.375 8.11328V1H48.7695V19H47.457L47.3984 17.3125C46.5 18.5938 45.1797 19.2344 43.4375 19.2344C41.9766 19.2344 40.7969 18.6484 39.8984 17.4766C39.0078 16.2969 38.5625 14.707 38.5625 12.707V12.543ZM39.9805 12.7891C39.9805 14.4062 40.3047 15.6836 40.9531 16.6211C41.6016 17.5508 42.5156 18.0156 43.6953 18.0156C45.4219 18.0156 46.6484 17.2539 47.375 15.7305V9.77734C46.6484 8.12891 45.4297 7.30469 43.7188 7.30469C42.5391 7.30469 41.6211 7.76953 40.9648 8.69922C40.3086 9.62109 39.9805 10.9844 39.9805 12.7891ZM54.2305 12.0508V19H52.7891V1.9375H58.6016C60.375 1.9375 61.7734 2.39063 62.7969 3.29688C63.8281 4.20312 64.3438 5.44922 64.3438 7.03516C64.3438 8.63672 63.8477 9.875 62.8555 10.75C61.8711 11.6172 60.4414 12.0508 58.5664 12.0508H54.2305ZM54.2305 10.832H58.6016C60 10.832 61.0664 10.5 61.8008 9.83594C62.5352 9.17188 62.9023 8.24609 62.9023 7.05859C62.9023 5.87891 62.5352 4.94141 61.8008 4.24609C61.0742 3.54297 60.0391 3.18359 58.6953 3.16797H54.2305V10.832ZM66.3125 12.4727C66.3125 11.2539 66.5469 10.1562 67.0156 9.17969C67.4922 8.20312 68.1602 7.44531 69.0195 6.90625C69.8867 6.35938 70.8672 6.08594 71.9609 6.08594C73.6484 6.08594 75.0156 6.67969 76.0625 7.86719C77.1094 9.04688 77.6328 10.6133 77.6328 12.5664V12.8594C77.6328 14.0859 77.3945 15.1914 76.918 16.1758C76.4492 17.1523 75.7852 17.9062 74.9258 18.4375C74.0664 18.9688 73.0859 19.2344 71.9844 19.2344C70.3047 19.2344 68.9375 18.6445 67.8828 17.4648C66.8359 16.2773 66.3125 14.707 66.3125 12.7539V12.4727ZM67.7188 12.8594C67.7188 14.375 68.1094 15.6211 68.8906 16.5977C69.6797 17.5664 70.7109 18.0508 71.9844 18.0508C73.25 18.0508 74.2734 17.5664 75.0547 16.5977C75.8438 15.6211 76.2383 14.3359 76.2383 12.7422V12.4727C76.2383 11.5039 76.0586 10.6172 75.6992 9.8125C75.3398 9.00781 74.8359 8.38672 74.1875 7.94922C73.5391 7.50391 72.7969 7.28125 71.9609 7.28125C70.7109 7.28125 69.6914 7.77344 68.9023 8.75781C68.1133 9.73438 67.7188 11.0156 67.7188 12.6016V12.8594ZM82.7188 3.07422V6.32031H85.3438V7.46875H82.7188V15.918C82.7188 16.6211 82.8438 17.1445 83.0938 17.4883C83.3516 17.832 83.7773 18.0039 84.3711 18.0039C84.6055 18.0039 84.9844 17.9648 85.5078 17.8867L85.5664 19.0352C85.1992 19.168 84.6992 19.2344 84.0664 19.2344C83.1055 19.2344 82.4062 18.957 81.9688 18.4023C81.5312 17.8398 81.3125 17.0156 81.3125 15.9297V7.46875H78.9805V6.32031H81.3125V3.07422H82.7188ZM96.2539 19C96.1133 18.6016 96.0234 18.0117 95.9844 17.2305C95.4922 17.8711 94.8633 18.3672 94.0977 18.7188C93.3398 19.0625 92.5352 19.2344 91.6836 19.2344C90.4648 19.2344 89.4766 18.8945 88.7188 18.2148C87.9688 17.5352 87.5938 16.6758 87.5938 15.6367C87.5938 14.4023 88.1055 13.4258 89.1289 12.707C90.1602 11.9883 91.5938 11.6289 93.4297 11.6289H95.9727V10.1875C95.9727 9.28125 95.6914 8.57031 95.1289 8.05469C94.5742 7.53125 93.7617 7.26953 92.6914 7.26953C91.7148 7.26953 90.9062 7.51953 90.2656 8.01953C89.625 8.51953 89.3047 9.12109 89.3047 9.82422L87.8984 9.8125C87.8984 8.80469 88.3672 7.93359 89.3047 7.19922C90.2422 6.45703 91.3945 6.08594 92.7617 6.08594C94.1758 6.08594 95.2891 6.44141 96.1016 7.15234C96.9219 7.85547 97.3438 8.83984 97.3672 10.1055V16.1055C97.3672 17.332 97.4961 18.25 97.7539 18.8594V19H96.2539ZM91.8477 17.9922C92.7852 17.9922 93.6211 17.7656 94.3555 17.3125C95.0977 16.8594 95.6367 16.2539 95.9727 15.4961V12.707H93.4648C92.0664 12.7227 90.9727 12.9805 90.1836 13.4805C89.3945 13.9727 89 14.6523 89 15.5195C89 16.2305 89.2617 16.8203 89.7852 17.2891C90.3164 17.7578 91.0039 17.9922 91.8477 17.9922ZM103.297 3.07422V6.32031H105.922V7.46875H103.297V15.918C103.297 16.6211 103.422 17.1445 103.672 17.4883C103.93 17.832 104.355 18.0039 104.949 18.0039C105.184 18.0039 105.562 17.9648 106.086 17.8867L106.145 19.0352C105.777 19.168 105.277 19.2344 104.645 19.2344C103.684 19.2344 102.984 18.957 102.547 18.4023C102.109 17.8398 101.891 17.0156 101.891 15.9297V7.46875H99.5586V6.32031H101.891V3.07422H103.297ZM107.82 12.4727C107.82 11.2539 108.055 10.1562 108.523 9.17969C109 8.20312 109.668 7.44531 110.527 6.90625C111.395 6.35938 112.375 6.08594 113.469 6.08594C115.156 6.08594 116.523 6.67969 117.57 7.86719C118.617 9.04688 119.141 10.6133 119.141 12.5664V12.8594C119.141 14.0859 118.902 15.1914 118.426 16.1758C117.957 17.1523 117.293 17.9062 116.434 18.4375C115.574 18.9688 114.594 19.2344 113.492 19.2344C111.812 19.2344 110.445 18.6445 109.391 17.4648C108.344 16.2773 107.82 14.707 107.82 12.7539V12.4727ZM109.227 12.8594C109.227 14.375 109.617 15.6211 110.398 16.5977C111.188 17.5664 112.219 18.0508 113.492 18.0508C114.758 18.0508 115.781 17.5664 116.562 16.5977C117.352 15.6211 117.746 14.3359 117.746 12.7422V12.4727C117.746 11.5039 117.566 10.6172 117.207 9.8125C116.848 9.00781 116.344 8.38672 115.695 7.94922C115.047 7.50391 114.305 7.28125 113.469 7.28125C112.219 7.28125 111.199 7.77344 110.41 8.75781C109.621 9.73438 109.227 11.0156 109.227 12.6016V12.8594ZM129.641 15.7773C129.641 15.082 129.359 14.5234 128.797 14.1016C128.242 13.6797 127.402 13.3516 126.277 13.1172C125.152 12.875 124.277 12.6016 123.652 12.2969C123.035 11.9844 122.574 11.6055 122.27 11.1602C121.973 10.7148 121.824 10.1758 121.824 9.54297C121.824 8.54297 122.242 7.71875 123.078 7.07031C123.914 6.41406 124.984 6.08594 126.289 6.08594C127.703 6.08594 128.836 6.4375 129.688 7.14062C130.547 7.83594 130.977 8.74609 130.977 9.87109H129.57C129.57 9.12891 129.258 8.51172 128.633 8.01953C128.016 7.52734 127.234 7.28125 126.289 7.28125C125.367 7.28125 124.625 7.48828 124.062 7.90234C123.508 8.30859 123.23 8.83984 123.23 9.49609C123.23 10.1289 123.461 10.6211 123.922 10.9727C124.391 11.3164 125.238 11.6328 126.465 11.9219C127.699 12.2109 128.621 12.5195 129.23 12.8477C129.848 13.1758 130.305 13.5703 130.602 14.0312C130.898 14.4922 131.047 15.0508 131.047 15.707C131.047 16.7773 130.613 17.6328 129.746 18.2734C128.887 18.9141 127.762 19.2344 126.371 19.2344C124.895 19.2344 123.695 18.8789 122.773 18.168C121.859 17.4492 121.402 16.543 121.402 15.4492H122.809C122.863 16.2695 123.207 16.9102 123.84 17.3711C124.48 17.8242 125.324 18.0508 126.371 18.0508C127.348 18.0508 128.137 17.8359 128.738 17.4062C129.34 16.9766 129.641 16.4336 129.641 15.7773Z" fill="#262D33"/>
<path d="M10.3086 14.3945L11.2893 14.1992L11.2846 14.1754L11.2787 14.1518L10.3086 14.3945ZM10.8359 17.043L9.85519 17.2383L11.805 17.2897L10.8359 17.043ZM11.4805 14.5117L10.5212 14.2292L10.516 14.247L10.5114 14.265L11.4805 14.5117ZM15.1836 1.9375V0.9375H14.4356L14.2243 1.65499L15.1836 1.9375ZM16.4844 1.9375L17.4446 1.65829L17.235 0.9375H16.4844V1.9375ZM20.1406 14.5117L21.1113 14.2713L21.1065 14.2518L21.1009 14.2325L20.1406 14.5117ZM20.7734 17.0664L19.8028 17.3068L21.752 17.2724L20.7734 17.0664ZM21.3359 14.3945L20.3652 14.1544L20.361 14.1714L20.3574 14.1885L21.3359 14.3945ZM24.418 1.9375V0.9375H23.6352L23.4472 1.69733L24.418 1.9375ZM25.8945 1.9375L26.8632 2.18567L27.183 0.9375H25.8945V1.9375ZM21.5234 19V20H22.2995L22.4922 19.2482L21.5234 19ZM20.1406 19L19.1801 19.2783L19.3892 20H20.1406V19ZM16.2734 5.65234L15.3049 5.9012L15.3087 5.91598L15.3129 5.93063L16.2734 5.65234ZM15.8398 3.96484L16.8084 3.71598L14.8697 3.72231L15.8398 3.96484ZM15.418 5.65234L16.3766 5.93683L16.3828 5.91598L16.3881 5.89488L15.418 5.65234ZM11.457 19V20H12.2034L12.4157 19.2845L11.457 19ZM10.0742 19L9.10534 19.2475L9.29759 20H10.0742V19ZM5.71484 1.9375V0.9375H4.42723L4.74597 2.18504L5.71484 1.9375ZM7.19141 1.9375L8.1615 1.69475L7.972 0.9375H7.19141V1.9375ZM9.32785 14.5898L9.85519 17.2383L11.8167 16.8477L11.2893 14.1992L9.32785 14.5898ZM11.805 17.2897L12.4495 14.7585L10.5114 14.265L9.86686 16.7962L11.805 17.2897ZM12.4397 14.7942L16.1429 2.22001L14.2243 1.65499L10.5212 14.2292L12.4397 14.7942ZM15.1836 2.9375H16.4844V0.9375H15.1836V2.9375ZM15.5241 2.21671L19.1804 14.7909L21.1009 14.2325L17.4446 1.65829L15.5241 2.21671ZM19.17 14.7522L19.8028 17.3068L21.7441 16.826L21.1113 14.2713L19.17 14.7522ZM21.752 17.2724L22.3145 14.6005L20.3574 14.1885L19.7949 16.8604L21.752 17.2724ZM22.3067 14.6347L25.3887 2.17767L23.4472 1.69733L20.3652 14.1544L22.3067 14.6347ZM24.418 2.9375H25.8945V0.9375H24.418V2.9375ZM24.9258 1.68933L20.5547 18.7518L22.4922 19.2482L26.8632 2.18567L24.9258 1.68933ZM21.5234 18H20.1406V20H21.5234V18ZM21.1011 18.7217L17.2339 5.37406L15.3129 5.93063L19.1801 19.2783L21.1011 18.7217ZM17.242 5.40348L16.8084 3.71598L14.8713 4.2137L15.3049 5.9012L17.242 5.40348ZM14.8697 3.72231L14.4478 5.40981L16.3881 5.89488L16.81 4.20738L14.8697 3.72231ZM14.4593 5.36785L10.4984 18.7155L12.4157 19.2845L16.3766 5.93683L14.4593 5.36785ZM11.457 18H10.0742V20H11.457V18ZM11.0431 18.7525L6.68372 1.68996L4.74597 2.18504L9.10534 19.2475L11.0431 18.7525ZM5.71484 2.9375H7.19141V0.9375H5.71484V2.9375ZM6.22132 2.18025L9.3385 14.6373L11.2787 14.1518L8.1615 1.69475L6.22132 2.18025ZM29.9141 19V20H30.9141V19H29.9141ZM28.5078 19H27.5078V20H28.5078V19ZM28.5078 6.32031V5.32031H27.5078V6.32031H28.5078ZM29.9141 6.32031H30.9141V5.32031H29.9141V6.32031ZM28.5195 1.98438L29.2422 2.6756L29.2495 2.66793L29.2567 2.6601L28.5195 1.98438ZM29.9258 1.98438L29.1886 2.6601L29.2033 2.67612L29.2187 2.69148L29.9258 1.98438ZM29.9258 3.32031L29.2187 2.61321L29.2108 2.62106L29.2031 2.62909L29.9258 3.32031ZM29.9141 18H28.5078V20H29.9141V18ZM29.5078 19V6.32031H27.5078V19H29.5078ZM28.5078 7.32031H29.9141V5.32031H28.5078V7.32031ZM28.9141 6.32031V19H30.9141V6.32031H28.9141ZM29.2617 2.65234C29.2617 2.64611 29.262 2.64162 29.2622 2.63874C29.2625 2.63587 29.2627 2.63452 29.2627 2.63452C29.2627 2.63451 29.2626 2.6348 29.2625 2.63537C29.2624 2.63595 29.2622 2.63677 29.2619 2.63783C29.2613 2.63998 29.2604 2.64283 29.2591 2.64621C29.2563 2.65333 29.2527 2.66047 29.2487 2.66671C29.2448 2.67288 29.242 2.67581 29.2422 2.6756L27.7969 1.29315C27.4341 1.67246 27.2617 2.14853 27.2617 2.65234H29.2617ZM29.2567 2.6601C29.2508 2.66652 29.2416 2.67503 29.2294 2.68352C29.2171 2.69203 29.2052 2.69807 29.1956 2.70191C29.1758 2.70983 29.1794 2.70312 29.2227 2.70312V0.703125C28.6968 0.703125 28.1758 0.879512 27.7824 1.30865L29.2567 2.6601ZM29.2227 2.70312C29.2659 2.70312 29.2695 2.70983 29.2497 2.70191C29.2401 2.69807 29.2282 2.69203 29.2159 2.68352C29.2037 2.67503 29.1945 2.66652 29.1886 2.6601L30.6629 1.30865C30.2696 0.879512 29.7485 0.703125 29.2227 0.703125V2.70312ZM29.2187 2.69148C29.2198 2.69263 29.2172 2.69015 29.2129 2.68376C29.2085 2.67724 29.2041 2.66916 29.2006 2.66033C29.197 2.65155 29.1955 2.645 29.195 2.64214C29.1945 2.63949 29.1953 2.64243 29.1953 2.65234H31.1953C31.1953 2.13488 31.0094 1.65375 30.6329 1.27727L29.2187 2.69148ZM29.1953 2.65234C29.1953 2.66226 29.1945 2.6652 29.195 2.66254C29.1955 2.65968 29.197 2.65313 29.2006 2.64436C29.2041 2.63553 29.2085 2.62744 29.2129 2.62093C29.2172 2.61454 29.2198 2.61205 29.2187 2.61321L30.6329 4.02742C31.0094 3.65094 31.1953 3.1698 31.1953 2.65234H29.1953ZM29.2031 2.62909C29.2103 2.6216 29.2202 2.613 29.2323 2.60495C29.2444 2.59692 29.2553 2.59172 29.2632 2.58871C29.279 2.58263 29.2706 2.58984 29.2227 2.58984V4.58984C29.7353 4.58984 30.2517 4.42625 30.6484 4.01154L29.2031 2.62909ZM29.2227 2.58984C29.1747 2.58984 29.1663 2.58263 29.1822 2.58871C29.19 2.59172 29.2009 2.59692 29.213 2.60495C29.2251 2.613 29.235 2.6216 29.2422 2.62909L27.7969 4.01154C28.1936 4.42625 28.71 4.58984 29.2227 4.58984V2.58984ZM29.2422 2.62909C29.242 2.62888 29.2448 2.63181 29.2487 2.63797C29.2527 2.64422 29.2563 2.65135 29.2591 2.65848C29.2604 2.66186 29.2613 2.6647 29.2619 2.66686C29.2622 2.66791 29.2624 2.66874 29.2625 2.66931C29.2626 2.66989 29.2627 2.67018 29.2627 2.67017C29.2627 2.67017 29.2625 2.66881 29.2622 2.66595C29.262 2.66307 29.2617 2.65858 29.2617 2.65234H27.2617C27.2617 3.15616 27.4341 3.63223 27.7969 4.01154L29.2422 2.62909ZM35.3047 19V20H36.3047V19H35.3047ZM33.8984 19H32.8984V20H33.8984V19ZM33.8984 1V0H32.8984V1H33.8984ZM35.3047 1H36.3047V0H35.3047V1ZM35.3047 18H33.8984V20H35.3047V18ZM34.8984 19V1H32.8984V19H34.8984ZM33.8984 2H35.3047V0H33.8984V2ZM34.3047 1V19H36.3047V1H34.3047ZM39.875 7.84375L39.0763 7.24205L39.0756 7.24289L39.875 7.84375ZM47.375 8.11328L46.5422 8.66687L48.375 11.424V8.11328H47.375ZM47.375 1V0H46.375V1H47.375ZM48.7695 1H49.7695V0H48.7695V1ZM48.7695 19V20H49.7695V19H48.7695ZM47.457 19L46.4576 19.0347L46.4912 20H47.457V19ZM47.3984 17.3125L48.3978 17.2778L48.2942 14.2933L46.5797 16.7384L47.3984 17.3125ZM39.8984 17.4766L39.1003 18.0791L39.1048 18.085L39.8984 17.4766ZM40.9531 16.6211L40.1307 17.19L40.1329 17.1932L40.9531 16.6211ZM47.375 15.7305L48.2776 16.1609L48.375 15.9567V15.7305H47.375ZM47.375 9.77734H48.375V9.56674L48.2901 9.37402L47.375 9.77734ZM40.9648 8.69922L41.7795 9.27915L41.7818 9.2759L40.9648 8.69922ZM39.5625 12.543C39.5625 10.7156 39.9686 9.38354 40.6744 8.44461L39.0756 7.24289C38.0314 8.63209 37.5625 10.4329 37.5625 12.543H39.5625ZM40.6737 8.44545C41.3615 7.53243 42.2569 7.08594 43.4609 7.08594V5.08594C41.6493 5.08594 40.1541 5.81132 39.0763 7.24205L40.6737 8.44545ZM43.4609 7.08594C44.8587 7.08594 45.8408 7.61174 46.5422 8.66687L48.2078 7.55969C47.1123 5.9117 45.485 5.08594 43.4609 5.08594V7.08594ZM48.375 8.11328V1H46.375V8.11328H48.375ZM47.375 2H48.7695V0H47.375V2ZM47.7695 1V19H49.7695V1H47.7695ZM48.7695 18H47.457V20H48.7695V18ZM48.4564 18.9653L48.3978 17.2778L46.399 17.3472L46.4576 19.0347L48.4564 18.9653ZM46.5797 16.7384C45.8918 17.7193 44.8967 18.2344 43.4375 18.2344V20.2344C45.4627 20.2344 47.1082 19.4682 48.2172 17.8866L46.5797 16.7384ZM43.4375 18.2344C42.2915 18.2344 41.4036 17.7963 40.692 16.8681L39.1048 18.085C40.1901 19.5006 41.6616 20.2344 43.4375 20.2344V18.2344ZM40.6965 16.874C39.9763 15.92 39.5625 14.5655 39.5625 12.707H37.5625C37.5625 14.8486 38.0393 16.6737 39.1003 18.0791L40.6965 16.874ZM39.5625 12.707V12.543H37.5625V12.707H39.5625ZM38.9805 12.7891C38.9805 14.5276 39.3275 16.0287 40.1307 17.1899L41.7756 16.0522C41.2819 15.3385 40.9805 14.2849 40.9805 12.7891H38.9805ZM40.1329 17.1932C40.9773 18.4037 42.2045 19.0156 43.6953 19.0156V17.0156C42.8267 17.0156 42.2259 16.6978 41.7733 16.049L40.1329 17.1932ZM43.6953 19.0156C44.7082 19.0156 45.6374 18.7908 46.4377 18.2939C47.2394 17.796 47.8461 17.0656 48.2776 16.1609L46.4724 15.3C46.1773 15.9188 45.8075 16.331 45.3826 16.5948C44.9563 16.8595 44.409 17.0156 43.6953 17.0156V19.0156ZM48.375 15.7305V9.77734H46.375V15.7305H48.375ZM48.2901 9.37402C47.8679 8.4163 47.2732 7.6335 46.4762 7.0945C45.6758 6.55318 44.7405 6.30469 43.7188 6.30469V8.30469C44.4079 8.30469 44.9375 8.4683 45.3558 8.75121C45.7775 9.03642 46.1555 9.48995 46.4599 10.1807L48.2901 9.37402ZM43.7188 6.30469C42.2283 6.30469 40.9995 6.91606 40.1479 8.12254L41.7818 9.2759C42.2427 8.623 42.8499 8.30469 43.7188 8.30469V6.30469ZM40.1502 8.11929C39.3209 9.28429 38.9805 10.8905 38.9805 12.7891H40.9805C40.9805 11.0783 41.2963 9.9579 41.7795 9.27915L40.1502 8.11929ZM54.2305 12.0508V11.0508H53.2305V12.0508H54.2305ZM54.2305 19V20H55.2305V19H54.2305ZM52.7891 19H51.7891V20H52.7891V19ZM52.7891 1.9375V0.9375H51.7891V1.9375H52.7891ZM62.7969 3.29688L62.1339 4.04555L62.1368 4.04804L62.7969 3.29688ZM62.8555 10.75L63.5165 11.5004L63.5169 11.5L62.8555 10.75ZM54.2305 10.832H53.2305V11.832H54.2305V10.832ZM61.8008 4.24609L61.1053 4.96474L61.1133 4.97225L61.8008 4.24609ZM58.6953 3.16797L58.7069 2.16797H58.6953V3.16797ZM54.2305 3.16797V2.16797H53.2305V3.16797H54.2305ZM53.2305 12.0508V19H55.2305V12.0508H53.2305ZM54.2305 18H52.7891V20H54.2305V18ZM53.7891 19V1.9375H51.7891V19H53.7891ZM52.7891 2.9375H58.6016V0.9375H52.7891V2.9375ZM58.6016 2.9375C60.2051 2.9375 61.3423 3.34455 62.1339 4.04554L63.4598 2.54821C62.2046 1.4367 60.5449 0.9375 58.6016 0.9375V2.9375ZM62.1368 4.04804C62.9175 4.7341 63.3438 5.68746 63.3438 7.03516H65.3438C65.3438 5.21098 64.7388 3.67215 63.457 2.54571L62.1368 4.04804ZM63.3438 7.03516C63.3438 8.41558 62.9261 9.35443 62.194 9.99999L63.5169 11.5C64.7692 10.3956 65.3438 8.85786 65.3438 7.03516H63.3438ZM62.1944 9.99964C61.4576 10.6488 60.3013 11.0508 58.5664 11.0508V13.0508C60.5815 13.0508 62.2846 12.5856 63.5165 11.5004L62.1944 9.99964ZM58.5664 11.0508H54.2305V13.0508H58.5664V11.0508ZM54.2305 11.832H58.6016V9.83203H54.2305V11.832ZM58.6016 11.832C60.146 11.832 61.4896 11.4655 62.4715 10.5777L61.1301 9.09421C60.6432 9.53447 59.854 9.83203 58.6016 9.83203V11.832ZM62.4715 10.5777C63.4571 9.68645 63.9023 8.46744 63.9023 7.05859H61.9023C61.9023 8.02475 61.6132 8.6573 61.1301 9.09421L62.4715 10.5777ZM63.9023 7.05859C63.9023 5.65403 63.4557 4.43583 62.4883 3.51994L61.1133 4.97225C61.6147 5.44699 61.9023 6.10379 61.9023 7.05859H63.9023ZM62.4962 3.52749C61.5322 2.59461 60.22 2.18563 58.7069 2.16804L58.6837 4.1679C59.8582 4.18156 60.6162 4.49133 61.1054 4.9647L62.4962 3.52749ZM58.6953 2.16797H54.2305V4.16797H58.6953V2.16797ZM53.2305 3.16797V10.832H55.2305V3.16797H53.2305ZM67.0156 9.17969L66.1169 8.74111L66.1141 8.74696L67.0156 9.17969ZM69.0195 6.90625L69.5509 7.75338L69.553 7.7521L69.0195 6.90625ZM76.0625 7.86719L75.3124 8.52849L75.3145 8.53094L76.0625 7.86719ZM76.918 16.1758L76.0179 15.74L76.0164 15.7431L76.918 16.1758ZM67.8828 17.4648L67.1327 18.1262L67.1373 18.1313L67.8828 17.4648ZM68.8906 16.5977L68.1097 17.2224L68.1153 17.2292L68.8906 16.5977ZM75.0547 16.5977L74.2769 15.9692L74.2763 15.9699L75.0547 16.5977ZM74.1875 7.94922L73.6214 8.77358L73.6282 8.77818L74.1875 7.94922ZM68.9023 8.75781L69.6802 9.3863L69.6826 9.38326L68.9023 8.75781ZM67.3125 12.4727C67.3125 11.3848 67.5209 10.4379 67.9171 9.61242L66.1141 8.74696C65.5728 9.87459 65.3125 11.123 65.3125 12.4727H67.3125ZM67.9143 9.61825C68.3151 8.79706 68.8611 8.18611 69.5509 7.75338L68.4881 6.05912C67.4593 6.70451 66.6693 7.60919 66.1169 8.74112L67.9143 9.61825ZM69.553 7.7521C70.2497 7.31274 71.0428 7.08594 71.9609 7.08594V5.08594C70.6916 5.08594 69.5238 5.40601 68.4861 6.0604L69.553 7.7521ZM71.9609 7.08594C73.3828 7.08594 74.4691 7.57189 75.3124 8.52848L76.8126 7.20589C75.5622 5.78749 73.9141 5.08594 71.9609 5.08594V7.08594ZM75.3145 8.53094C76.1628 9.48685 76.6328 10.7972 76.6328 12.5664H78.6328C78.6328 10.4293 78.0559 8.6069 76.8105 7.20344L75.3145 8.53094ZM76.6328 12.5664V12.8594H78.6328V12.5664H76.6328ZM76.6328 12.8594C76.6328 13.9535 76.4211 14.9072 76.0179 15.74L77.818 16.6115C78.368 15.4756 78.6328 14.2184 78.6328 12.8594H76.6328ZM76.0164 15.7431C75.6242 16.5603 75.0849 17.1635 74.4 17.5869L75.4516 19.2881C76.4854 18.649 77.2743 17.7444 77.8195 16.6085L76.0164 15.7431ZM74.4 17.5869C73.7127 18.0117 72.9176 18.2344 71.9844 18.2344V20.2344C73.2543 20.2344 74.4201 19.9258 75.4516 19.2881L74.4 17.5869ZM71.9844 18.2344C70.5696 18.2344 69.4805 17.7515 68.6283 16.7983L67.1373 18.1313C68.3945 19.5375 70.0398 20.2344 71.9844 20.2344V18.2344ZM68.6329 16.8035C67.7824 15.8387 67.3125 14.5228 67.3125 12.7539H65.3125C65.3125 14.8913 65.8895 16.7159 67.1327 18.1261L68.6329 16.8035ZM67.3125 12.7539V12.4727H65.3125V12.7539H67.3125ZM66.7188 12.8594C66.7188 14.5523 67.1584 16.0332 68.1098 17.2224L69.6715 15.973C69.0603 15.209 68.7188 14.1977 68.7188 12.8594H66.7188ZM68.1153 17.2292C69.0984 18.4362 70.4169 19.0508 71.9844 19.0508V17.0508C71.0049 17.0508 70.2609 16.6966 69.666 15.9661L68.1153 17.2292ZM71.9844 19.0508C73.5464 19.0508 74.8583 18.4342 75.8331 17.2254L74.2763 15.9699C73.6886 16.6986 72.9536 17.0508 71.9844 17.0508V19.0508ZM75.8325 17.2261C76.8004 16.0283 77.2383 14.5019 77.2383 12.7422H75.2383C75.2383 14.17 74.8871 15.2139 74.2769 15.9692L75.8325 17.2261ZM77.2383 12.7422V12.4727H75.2383V12.7422H77.2383ZM77.2383 12.4727C77.2383 11.3774 77.0344 10.35 76.6123 9.40472L74.7861 10.2203C75.0827 10.8844 75.2383 11.6304 75.2383 12.4727H77.2383ZM76.6123 9.40472C76.1866 8.45154 75.5692 7.67514 74.7468 7.12025L73.6282 8.77818C74.1027 9.0983 74.4931 9.56409 74.7861 10.2203L76.6123 9.40472ZM74.7536 7.12489C73.9279 6.55781 72.9856 6.28125 71.9609 6.28125V8.28125C72.6081 8.28125 73.1503 8.45 73.6214 8.77355L74.7536 7.12489ZM71.9609 6.28125C70.4042 6.28125 69.0989 6.91378 68.1221 8.13236L69.6826 9.38326C70.2839 8.63309 71.0177 8.28125 71.9609 8.28125V6.28125ZM68.1245 8.12933C67.1573 9.32637 66.7188 10.8484 66.7188 12.6016H68.7188C68.7188 11.1829 69.0692 10.1424 69.6802 9.38629L68.1245 8.12933ZM66.7188 12.6016V12.8594H68.7188V12.6016H66.7188ZM82.7188 3.07422H83.7188V2.07422H82.7188V3.07422ZM82.7188 6.32031H81.7188V7.32031H82.7188V6.32031ZM85.3438 6.32031H86.3438V5.32031H85.3438V6.32031ZM85.3438 7.46875V8.46875H86.3438V7.46875H85.3438ZM82.7188 7.46875V6.46875H81.7188V7.46875H82.7188ZM83.0938 17.4883L82.285 18.0765L82.2893 18.0824L82.2938 18.0883L83.0938 17.4883ZM85.5078 17.8867L86.5065 17.8358L86.4504 16.735L85.3602 16.8977L85.5078 17.8867ZM85.5664 19.0352L85.9065 19.9755L86.6028 19.7237L86.5651 18.9842L85.5664 19.0352ZM81.9688 18.4023L81.1794 19.0163L81.1836 19.0216L81.9688 18.4023ZM81.3125 7.46875H82.3125V6.46875H81.3125V7.46875ZM78.9805 7.46875H77.9805V8.46875H78.9805V7.46875ZM78.9805 6.32031V5.32031H77.9805V6.32031H78.9805ZM81.3125 6.32031V7.32031H82.3125V6.32031H81.3125ZM81.3125 3.07422V2.07422H80.3125V3.07422H81.3125ZM81.7188 3.07422V6.32031H83.7188V3.07422H81.7188ZM82.7188 7.32031H85.3438V5.32031H82.7188V7.32031ZM84.3438 6.32031V7.46875H86.3438V6.32031H84.3438ZM85.3438 6.46875H82.7188V8.46875H85.3438V6.46875ZM81.7188 7.46875V15.918H83.7188V7.46875H81.7188ZM81.7188 15.918C81.7188 16.7066 81.8529 17.4823 82.285 18.0765L83.9025 16.9001C83.8346 16.8067 83.7188 16.5356 83.7188 15.918H81.7188ZM82.2938 18.0883C82.8062 18.7715 83.5912 19.0039 84.3711 19.0039V17.0039C83.9635 17.0039 83.897 16.8926 83.8937 16.8883L82.2938 18.0883ZM84.3711 19.0039C84.6858 19.0039 85.1283 18.9544 85.6554 18.8758L85.3602 16.8977C84.8404 16.9753 84.5252 17.0039 84.3711 17.0039V19.0039ZM84.5091 17.9377L84.5677 19.0861L86.5651 18.9842L86.5065 17.8358L84.5091 17.9377ZM85.2263 18.0948C85.0147 18.1713 84.646 18.2344 84.0664 18.2344V20.2344C84.7524 20.2344 85.3837 20.1646 85.9065 19.9755L85.2263 18.0948ZM84.0664 18.2344C83.294 18.2344 82.9392 18.018 82.7539 17.7831L81.1836 19.0216C81.8733 19.8961 82.917 20.2344 84.0664 20.2344V18.2344ZM82.7581 17.7884C82.5122 17.4723 82.3125 16.9038 82.3125 15.9297H80.3125C80.3125 17.1275 80.5503 18.2074 81.1794 19.0163L82.7581 17.7884ZM82.3125 15.9297V7.46875H80.3125V15.9297H82.3125ZM81.3125 6.46875H78.9805V8.46875H81.3125V6.46875ZM79.9805 7.46875V6.32031H77.9805V7.46875H79.9805ZM78.9805 7.32031H81.3125V5.32031H78.9805V7.32031ZM82.3125 6.32031V3.07422H80.3125V6.32031H82.3125ZM81.3125 4.07422H82.7188V2.07422H81.3125V4.07422ZM96.2539 19L95.3109 19.3328L95.5464 20H96.2539V19ZM95.9844 17.2305L96.9831 17.1805L96.8474 14.4658L95.1914 16.6212L95.9844 17.2305ZM94.0977 18.7188L94.5108 19.6294L94.5149 19.6275L94.0977 18.7188ZM88.7188 18.2148L88.0472 18.9558L88.0511 18.9593L88.7188 18.2148ZM89.1289 12.707L88.5571 11.8866L88.5542 11.8887L89.1289 12.707ZM95.9727 11.6289V12.6289H96.9727V11.6289H95.9727ZM95.1289 8.05469L94.4426 8.78198L94.4478 8.78695L94.4532 8.79184L95.1289 8.05469ZM89.3047 9.82422L89.2964 10.8242L90.3047 10.8326V9.82422H89.3047ZM87.8984 9.8125H86.8984V10.8042L87.8901 10.8125L87.8984 9.8125ZM89.3047 7.19922L89.9214 7.98646L89.9254 7.98326L89.3047 7.19922ZM96.1016 7.15234L95.443 7.90496L95.4508 7.9116L96.1016 7.15234ZM97.3672 10.1055H98.3672V10.0962L98.367 10.087L97.3672 10.1055ZM97.7539 18.8594H98.7539V18.6565L98.6749 18.4697L97.7539 18.8594ZM97.7539 19V20H98.7539V19H97.7539ZM94.3555 17.3125L93.8344 16.459L93.8304 16.4615L94.3555 17.3125ZM95.9727 15.4961L96.8869 15.9014L96.9727 15.7078V15.4961H95.9727ZM95.9727 12.707H96.9727V11.707H95.9727V12.707ZM93.4648 12.707L93.4648 11.707L93.4537 11.7071L93.4648 12.707ZM90.1836 13.4805L90.7129 14.329L90.7188 14.3252L90.1836 13.4805ZM89.7852 17.2891L89.118 18.034L89.1235 18.0389L89.7852 17.2891ZM97.1969 18.6672C97.105 18.4068 97.0207 17.9325 96.9831 17.1805L94.9856 17.2804C95.0261 18.0909 95.1216 18.7963 95.3109 19.3328L97.1969 18.6672ZM95.1914 16.6212C94.8025 17.1274 94.3048 17.5232 93.6804 17.81L94.5149 19.6275C95.4217 19.2111 96.1818 18.6148 96.7774 17.8397L95.1914 16.6212ZM93.6846 17.8081C93.0596 18.0916 92.3961 18.2344 91.6836 18.2344V20.2344C92.6742 20.2344 93.6201 20.0334 94.5108 19.6294L93.6846 17.8081ZM91.6836 18.2344C90.6601 18.2344 89.9259 17.9543 89.3864 17.4704L88.0511 18.9593C89.0272 19.8348 90.2696 20.2344 91.6836 20.2344V18.2344ZM89.3903 17.4739C88.8557 16.9894 88.5938 16.402 88.5938 15.6367H86.5938C86.5938 16.9495 87.0818 18.0809 88.0472 18.9558L89.3903 17.4739ZM88.5938 15.6367C88.5938 14.7332 88.9426 14.0598 89.7036 13.5254L88.5542 11.8887C87.2683 12.7917 86.5938 14.0715 86.5938 15.6367H88.5938ZM89.7007 13.5274C90.5032 12.9681 91.7085 12.6289 93.4297 12.6289V10.6289C91.479 10.6289 89.8171 11.0084 88.5571 11.8866L89.7007 13.5274ZM93.4297 12.6289H95.9727V10.6289H93.4297V12.6289ZM96.9727 11.6289V10.1875H94.9727V11.6289H96.9727ZM96.9727 10.1875C96.9727 9.05822 96.6125 8.05809 95.8046 7.31753L94.4532 8.79184C94.7703 9.08254 94.9727 9.50428 94.9727 10.1875H96.9727ZM95.8152 7.32739C95.0113 6.56878 93.9134 6.26953 92.6914 6.26953V8.26953C93.61 8.26953 94.1371 8.49372 94.4426 8.78198L95.8152 7.32739ZM92.6914 6.26953C91.5383 6.26953 90.5002 6.56796 89.6504 7.23122L90.8809 8.80785C91.3123 8.4711 91.8913 8.26953 92.6914 8.26953V6.26953ZM89.6504 7.23122C88.8096 7.88739 88.3047 8.7627 88.3047 9.82422H90.3047C90.3047 9.47949 90.4404 9.15168 90.8809 8.80785L89.6504 7.23122ZM89.313 8.82425L87.9068 8.81253L87.8901 10.8125L89.2964 10.8242L89.313 8.82425ZM88.8984 9.8125C88.8984 9.16965 89.1766 8.56986 89.9213 7.98645L88.688 6.41199C87.5578 7.29732 86.8984 8.43973 86.8984 9.8125H88.8984ZM89.9254 7.98326C90.6613 7.40064 91.5859 7.08594 92.7617 7.08594V5.08594C91.2032 5.08594 89.823 5.51342 88.684 6.41517L89.9254 7.98326ZM92.7617 7.08594C94.01 7.08594 94.8632 7.39753 95.4431 7.90492L96.7601 6.39977C95.7149 5.48528 94.3415 5.08594 92.7617 5.08594V7.08594ZM95.4508 7.9116C96.0166 8.39657 96.3482 9.08994 96.3674 10.124L98.367 10.087C98.3393 8.58975 97.8272 7.31437 96.7524 6.39309L95.4508 7.9116ZM96.3672 10.1055V16.1055H98.3672V10.1055H96.3672ZM96.3672 16.1055C96.3672 17.3712 96.4957 18.4518 96.8329 19.249L98.6749 18.4697C98.4965 18.0482 98.3672 17.2929 98.3672 16.1055H96.3672ZM96.7539 18.8594V19H98.7539V18.8594H96.7539ZM97.7539 18H96.2539V20H97.7539V18ZM91.8477 18.9922C92.954 18.9922 93.9748 18.7224 94.8806 18.1635L93.8304 16.4615C93.2674 16.8088 92.6163 16.9922 91.8477 16.9922V18.9922ZM94.8766 18.166C95.7833 17.6124 96.4643 16.8545 96.8869 15.9014L95.0585 15.0908C94.8091 15.6533 94.412 16.1063 93.8344 16.459L94.8766 18.166ZM96.9727 15.4961V12.707H94.9727V15.4961H96.9727ZM95.9727 11.707H93.4648V13.707H95.9727V11.707ZM93.4537 11.7071C91.9556 11.7238 90.6538 11.9986 89.6483 12.6358L90.7188 14.3252C91.2915 13.9623 92.1772 13.7215 93.476 13.707L93.4537 11.7071ZM89.6544 12.632C88.598 13.2909 88 14.2782 88 15.5195H90C90 15.0265 90.1911 14.6544 90.7128 14.3289L89.6544 12.632ZM88 15.5195C88 16.511 88.3799 17.373 89.118 18.034L90.4523 16.5441C90.1435 16.2676 90 15.95 90 15.5195H88ZM89.1235 18.0389C89.8711 18.6986 90.8092 18.9922 91.8477 18.9922V16.9922C91.1986 16.9922 90.7617 16.8171 90.4468 16.5392L89.1235 18.0389ZM103.297 3.07422H104.297V2.07422H103.297V3.07422ZM103.297 6.32031H102.297V7.32031H103.297V6.32031ZM105.922 6.32031H106.922V5.32031H105.922V6.32031ZM105.922 7.46875V8.46875H106.922V7.46875H105.922ZM103.297 7.46875V6.46875H102.297V7.46875H103.297ZM103.672 17.4883L102.863 18.0765L102.867 18.0824L102.872 18.0883L103.672 17.4883ZM106.086 17.8867L107.085 17.8358L107.028 16.735L105.938 16.8977L106.086 17.8867ZM106.145 19.0352L106.485 19.9755L107.181 19.7237L107.143 18.9842L106.145 19.0352ZM102.547 18.4023L101.758 19.0163L101.762 19.0216L102.547 18.4023ZM101.891 7.46875H102.891V6.46875H101.891V7.46875ZM99.5586 7.46875H98.5586V8.46875H99.5586V7.46875ZM99.5586 6.32031V5.32031H98.5586V6.32031H99.5586ZM101.891 6.32031V7.32031H102.891V6.32031H101.891ZM101.891 3.07422V2.07422H100.891V3.07422H101.891ZM102.297 3.07422V6.32031H104.297V3.07422H102.297ZM103.297 7.32031H105.922V5.32031H103.297V7.32031ZM104.922 6.32031V7.46875H106.922V6.32031H104.922ZM105.922 6.46875H103.297V8.46875H105.922V6.46875ZM102.297 7.46875V15.918H104.297V7.46875H102.297ZM102.297 15.918C102.297 16.7066 102.431 17.4823 102.863 18.0765L104.481 16.9001C104.413 16.8067 104.297 16.5356 104.297 15.918H102.297ZM102.872 18.0883C103.384 18.7715 104.169 19.0039 104.949 19.0039V17.0039C104.542 17.0039 104.475 16.8926 104.472 16.8883L102.872 18.0883ZM104.949 19.0039C105.264 19.0039 105.706 18.9544 106.234 18.8758L105.938 16.8977C105.419 16.9753 105.103 17.0039 104.949 17.0039V19.0039ZM105.087 17.9377L105.146 19.0861L107.143 18.9842L107.085 17.8358L105.087 17.9377ZM105.804 18.0948C105.593 18.1713 105.224 18.2344 104.645 18.2344V20.2344C105.331 20.2344 105.962 20.1646 106.485 19.9755L105.804 18.0948ZM104.645 18.2344C103.872 18.2344 103.517 18.018 103.332 17.7831L101.762 19.0216C102.451 19.8961 103.495 20.2344 104.645 20.2344V18.2344ZM103.336 17.7884C103.09 17.4723 102.891 16.9038 102.891 15.9297H100.891C100.891 17.1275 101.128 18.2074 101.758 19.0163L103.336 17.7884ZM102.891 15.9297V7.46875H100.891V15.9297H102.891ZM101.891 6.46875H99.5586V8.46875H101.891V6.46875ZM100.559 7.46875V6.32031H98.5586V7.46875H100.559ZM99.5586 7.32031H101.891V5.32031H99.5586V7.32031ZM102.891 6.32031V3.07422H100.891V6.32031H102.891ZM101.891 4.07422H103.297V2.07422H101.891V4.07422ZM108.523 9.17969L107.625 8.74111L107.622 8.74696L108.523 9.17969ZM110.527 6.90625L111.059 7.75338L111.061 7.7521L110.527 6.90625ZM117.57 7.86719L116.82 8.52849L116.822 8.53094L117.57 7.86719ZM118.426 16.1758L117.526 15.74L117.524 15.7431L118.426 16.1758ZM109.391 17.4648L108.64 18.1262L108.645 18.1313L109.391 17.4648ZM110.398 16.5977L109.618 17.2224L109.623 17.2292L110.398 16.5977ZM116.562 16.5977L115.785 15.9692L115.784 15.9699L116.562 16.5977ZM115.695 7.94922L115.129 8.77358L115.136 8.77818L115.695 7.94922ZM110.41 8.75781L111.188 9.3863L111.19 9.38326L110.41 8.75781ZM108.82 12.4727C108.82 11.3848 109.029 10.4379 109.425 9.61242L107.622 8.74696C107.081 9.87459 106.82 11.123 106.82 12.4727H108.82ZM109.422 9.61825C109.823 8.79706 110.369 8.18611 111.059 7.75338L109.996 6.05912C108.967 6.70451 108.177 7.60919 107.625 8.74112L109.422 9.61825ZM111.061 7.7521C111.757 7.31274 112.551 7.08594 113.469 7.08594V5.08594C112.199 5.08594 111.032 5.40601 109.994 6.0604L111.061 7.7521ZM113.469 7.08594C114.891 7.08594 115.977 7.57189 116.82 8.52848L118.32 7.20589C117.07 5.78749 115.422 5.08594 113.469 5.08594V7.08594ZM116.822 8.53094C117.671 9.48685 118.141 10.7972 118.141 12.5664H120.141C120.141 10.4293 119.564 8.6069 118.318 7.20344L116.822 8.53094ZM118.141 12.5664V12.8594H120.141V12.5664H118.141ZM118.141 12.8594C118.141 13.9535 117.929 14.9072 117.526 15.74L119.326 16.6115C119.876 15.4756 120.141 14.2184 120.141 12.8594H118.141ZM117.524 15.7431C117.132 16.5603 116.593 17.1635 115.908 17.5869L116.959 19.2881C117.993 18.649 118.782 17.7444 119.327 16.6085L117.524 15.7431ZM115.908 17.5869C115.221 18.0117 114.425 18.2344 113.492 18.2344V20.2344C114.762 20.2344 115.928 19.9258 116.959 19.2881L115.908 17.5869ZM113.492 18.2344C112.077 18.2344 110.988 17.7515 110.136 16.7983L108.645 18.1313C109.902 19.5375 111.548 20.2344 113.492 20.2344V18.2344ZM110.141 16.8035C109.29 15.8387 108.82 14.5228 108.82 12.7539H106.82C106.82 14.8913 107.397 16.7159 108.64 18.1261L110.141 16.8035ZM108.82 12.7539V12.4727H106.82V12.7539H108.82ZM108.227 12.8594C108.227 14.5523 108.666 16.0332 109.618 17.2224L111.179 15.973C110.568 15.209 110.227 14.1977 110.227 12.8594H108.227ZM109.623 17.2292C110.606 18.4362 111.925 19.0508 113.492 19.0508V17.0508C112.513 17.0508 111.769 16.6966 111.174 15.9661L109.623 17.2292ZM113.492 19.0508C115.054 19.0508 116.366 18.4342 117.341 17.2254L115.784 15.9699C115.196 16.6986 114.461 17.0508 113.492 17.0508V19.0508ZM117.34 17.2261C118.308 16.0283 118.746 14.5019 118.746 12.7422H116.746C116.746 14.17 116.395 15.2139 115.785 15.9692L117.34 17.2261ZM118.746 12.7422V12.4727H116.746V12.7422H118.746ZM118.746 12.4727C118.746 11.3774 118.542 10.35 118.12 9.40472L116.294 10.2203C116.591 10.8844 116.746 11.6304 116.746 12.4727H118.746ZM118.12 9.40472C117.694 8.45154 117.077 7.67514 116.255 7.12025L115.136 8.77818C115.61 9.0983 116.001 9.56409 116.294 10.2203L118.12 9.40472ZM116.261 7.12489C115.436 6.55781 114.493 6.28125 113.469 6.28125V8.28125C114.116 8.28125 114.658 8.45 115.129 8.77355L116.261 7.12489ZM113.469 6.28125C111.912 6.28125 110.607 6.91378 109.63 8.13236L111.19 9.38326C111.792 8.63309 112.525 8.28125 113.469 8.28125V6.28125ZM109.632 8.12933C108.665 9.32637 108.227 10.8484 108.227 12.6016H110.227C110.227 11.1829 110.577 10.1424 111.188 9.38629L109.632 8.12933ZM108.227 12.6016V12.8594H110.227V12.6016H108.227ZM128.797 14.1016L128.191 14.8975L128.197 14.9016L128.797 14.1016ZM126.277 13.1172L126.067 14.0948L126.073 14.0962L126.277 13.1172ZM123.652 12.2969L123.201 13.189L123.207 13.1924L123.214 13.1958L123.652 12.2969ZM122.27 11.1602L121.437 11.7149L121.444 11.7248L122.27 11.1602ZM123.078 7.07031L123.691 7.86047L123.696 7.85689L123.078 7.07031ZM129.688 7.14062L129.051 7.91178L129.059 7.91803L129.688 7.14062ZM130.977 9.87109V10.8711H131.977V9.87109H130.977ZM129.57 9.87109H128.57V10.8711H129.57V9.87109ZM128.633 8.01953L128.009 8.80138L128.014 8.80517L128.633 8.01953ZM124.062 7.90234L124.653 8.70911L124.655 8.70768L124.062 7.90234ZM123.922 10.9727L123.315 11.7678L123.323 11.7735L123.331 11.7791L123.922 10.9727ZM126.465 11.9219L126.235 12.8952L126.237 12.8955L126.465 11.9219ZM129.23 12.8477L128.756 13.7281L128.761 13.7306L129.23 12.8477ZM129.746 18.2734L129.152 17.4691L129.148 17.4717L129.746 18.2734ZM122.773 18.168L122.155 18.9541L122.163 18.9598L122.773 18.168ZM121.402 15.4492V14.4492H120.402V15.4492H121.402ZM122.809 15.4492L123.806 15.3827L123.744 14.4492H122.809V15.4492ZM123.84 17.3711L123.251 18.1795L123.262 18.1875L123.84 17.3711ZM130.641 15.7773C130.641 14.7631 130.208 13.9098 129.397 13.3016L128.197 14.9016C128.511 15.1371 128.641 15.4009 128.641 15.7773H130.641ZM129.402 13.3056C128.676 12.7534 127.669 12.3856 126.481 12.1382L126.073 14.0962C127.136 14.3175 127.808 14.6059 128.192 14.8975L129.402 13.3056ZM126.488 12.1396C125.397 11.9049 124.611 11.6519 124.091 11.398L123.214 13.1958C123.943 13.5512 124.907 13.8451 126.067 14.0948L126.488 12.1396ZM124.104 11.4047C123.596 11.1473 123.281 10.8682 123.095 10.5955L121.444 11.7248C121.867 12.3428 122.475 12.8215 123.201 13.189L124.104 11.4047ZM123.102 10.6055C122.933 10.3525 122.824 10.0151 122.824 9.54297H120.824C120.824 10.3365 121.012 11.0772 121.437 11.7149L123.102 10.6055ZM122.824 9.54297C122.824 8.87221 123.083 8.33221 123.691 7.86046L122.465 6.28017C121.401 7.10529 120.824 8.21373 120.824 9.54297H122.824ZM123.696 7.85689C124.318 7.36809 125.156 7.08594 126.289 7.08594V5.08594C124.813 5.08594 123.51 5.46004 122.461 6.28374L123.696 7.85689ZM126.289 7.08594C127.537 7.08594 128.424 7.39397 129.051 7.91174L130.324 6.36951C129.248 5.48103 127.869 5.08594 126.289 5.08594V7.08594ZM129.059 7.91803C129.678 8.41961 129.977 9.04173 129.977 9.87109H131.977C131.977 8.45046 131.415 7.25226 130.316 6.36322L129.059 7.91803ZM130.977 8.87109H129.57V10.8711H130.977V8.87109ZM130.57 9.87109C130.57 8.79791 130.097 7.89999 129.252 7.23389L128.014 8.80517C128.418 9.12345 128.57 9.4599 128.57 9.87109H130.57ZM129.256 7.2377C128.429 6.57783 127.415 6.28125 126.289 6.28125V8.28125C127.054 8.28125 127.602 8.47686 128.009 8.80136L129.256 7.2377ZM126.289 6.28125C125.222 6.28125 124.252 6.52146 123.47 7.09701L124.655 8.70768C124.998 8.45511 125.513 8.28125 126.289 8.28125V6.28125ZM123.472 7.09558C122.674 7.67962 122.23 8.50364 122.23 9.49609H124.23C124.23 9.17605 124.341 8.93757 124.653 8.70911L123.472 7.09558ZM122.23 9.49609C122.23 10.4079 122.581 11.2079 123.315 11.7678L124.528 10.1775C124.34 10.0343 124.23 9.84994 124.23 9.49609H122.23ZM123.331 11.7791C123.974 12.2513 124.996 12.603 126.235 12.8952L126.694 10.9485C125.481 10.6626 124.807 10.3815 124.513 10.1663L123.331 11.7791ZM126.237 12.8955C127.444 13.1782 128.264 13.463 128.756 13.7281L129.705 11.9672C128.978 11.5761 127.954 11.2437 126.693 10.9482L126.237 12.8955ZM128.761 13.7306C129.268 14.0001 129.579 14.2897 129.761 14.5727L131.442 13.4898C131.031 12.8509 130.427 12.3514 129.7 11.9647L128.761 13.7306ZM129.761 14.5727C129.935 14.8428 130.047 15.2045 130.047 15.707H132.047C132.047 14.897 131.862 14.1416 131.442 13.4898L129.761 14.5727ZM130.047 15.707C130.047 16.4573 129.766 17.0154 129.152 17.4691L130.34 19.0778C131.46 18.2502 132.047 17.0974 132.047 15.707H130.047ZM129.148 17.4717C128.507 17.9499 127.611 18.2344 126.371 18.2344V20.2344C127.913 20.2344 129.267 19.8782 130.344 19.0752L129.148 17.4717ZM126.371 18.2344C125.055 18.2344 124.089 17.9195 123.384 17.3761L122.163 18.9598C123.302 19.8383 124.734 20.2344 126.371 20.2344V18.2344ZM123.392 17.3819C122.701 16.8389 122.402 16.2145 122.402 15.4492H120.402C120.402 16.8714 121.018 18.0595 122.155 18.9541L123.392 17.3819ZM121.402 16.4492H122.809V14.4492H121.402V16.4492ZM121.811 15.5157C121.884 16.6147 122.365 17.5342 123.251 18.1794L124.429 16.5628C124.049 16.2861 123.842 15.9244 123.806 15.3827L121.811 15.5157ZM123.262 18.1875C124.12 18.7942 125.186 19.0508 126.371 19.0508V17.0508C125.463 17.0508 124.841 16.8543 124.417 16.5547L123.262 18.1875ZM126.371 19.0508C127.49 19.0508 128.501 18.8044 129.32 18.22L128.157 16.5925C127.772 16.8675 127.206 17.0508 126.371 17.0508V19.0508ZM129.32 18.22C130.145 17.63 130.641 16.8011 130.641 15.7773H128.641C128.641 16.0661 128.534 16.3231 128.157 16.5925L129.32 18.22Z" fill="#262D33"/>
</g>
<defs>
<filter id="filter0_d" x="0.427246" y="0" width="135.62" height="28.2344" filterUnits="userSpaceOnUse" color-interpolation-filters="sRGB">
<feFlood flood-opacity="0" result="BackgroundImageFix"/>
<feColorMatrix in="SourceAlpha" type="matrix" values="0 0 0 0 0 0 0 0 0 0 0 0 0 0 0 0 0 0 127 0"/>
<feOffset dy="4"/>
<feGaussianBlur stdDeviation="2"/>
<feColorMatrix type="matrix" values="0 0 0 0 0 0 0 0 0 0 0 0 0 0 0 0 0 0 0.25 0"/>
<feBlend mode="normal" in2="BackgroundImageFix" result="effect1_dropShadow"/>
<feBlend mode="normal" in="SourceGraphic" in2="effect1_dropShadow" result="shape"/>
</filter>
</defs>
</svg>
